<?xml version="1.0" standalone="no"?>
<!DOCTYPE svg PUBLIC "-//W3C//DTD SVG 20010904//EN"
 "http://www.w3.org/TR/2001/REC-SVG-20010904/DTD/svg10.dtd">
<svg version="1.0" xmlns="http://www.w3.org/2000/svg"
 width="512.000000pt" height="512.000000pt" viewBox="0 0 512.000000 512.000000"
 preserveAspectRatio="xMidYMid meet">

<g transform="translate(0.000000,512.000000) scale(0.100000,-0.100000)"
fill="#000000" stroke="none">
<path d="M1505 5076 c-159 -38 -290 -166 -330 -321 -8 -34 -15 -101 -15 -158
0 -91 2 -100 25 -122 l24 -25 346 0 345 0 0 -755 0 -756 25 -24 c32 -33 78
-33 110 0 l25 24 0 878 c0 516 -4 895 -10 919 -11 49 -41 117 -71 162 l-21 32
958 -2 959 -3 57 -23 c67 -27 155 -103 192 -166 57 -98 56 -71 56 -1178 l0
-1018 -640 0 -641 0 -24 -25 c-18 -17 -25 -35 -25 -63 0 -52 -26 -136 -61
-198 -34 -60 -37 -96 -9 -124 48 -48 99 -33 147 43 28 44 72 160 73 190 0 16
52 17 960 17 796 0 960 -2 960 -13 0 -31 -65 -140 -108 -184 -26 -25 -76 -60
-112 -77 l-65 -31 -868 -5 -869 -5 -25 -29 c-29 -35 -26 -80 8 -108 20 -17 76
-18 870 -18 576 0 865 4 901 11 99 20 197 75 273 153 82 84 118 146 145 252
28 107 26 158 -5 189 l-24 25 -351 0 -350 0 0 1023 c0 1135 2 1098 -67 1230
-49 95 -145 191 -236 235 -134 64 -77 62 -1337 61 -867 -1 -1157 -4 -1195 -13z
m195 -162 c105 -31 200 -158 200 -266 l0 -38 -290 0 -290 0 0 38 c0 115 81
225 194 264 64 22 117 22 186 2z"/>
<path d="M2280 4570 c-21 -21 -26 -69 -10 -100 21 -39 48 -40 850 -40 802 0
829 1 850 40 16 31 11 79 -10 100 -20 20 -33 20 -840 20 -807 0 -820 0 -840
-20z"/>
<path d="M2282 4157 c-29 -31 -29 -87 -1 -113 20 -18 51 -19 833 -22 811 -2
813 -2 839 19 36 27 38 86 4 117 l-23 22 -815 0 -816 0 -21 -23z"/>
<path d="M2286 3749 c-20 -16 -26 -29 -26 -59 0 -30 6 -43 26 -59 27 -21 32
-21 834 -21 802 0 807 0 834 21 37 29 37 89 0 118 -27 21 -32 21 -834 21 -802
0 -807 0 -834 -21z"/>
<path d="M2286 3339 c-35 -27 -36 -86 -3 -117 l23 -22 815 0 816 0 21 23 c32
34 30 89 -4 116 -27 21 -32 21 -834 21 -802 0 -807 0 -834 -21z"/>
<path d="M2305 2939 c-49 -27 -61 -93 -25 -129 20 -20 33 -20 840 -20 807 0
820 0 840 20 26 26 26 80 1 111 l-19 24 -809 2 c-574 2 -814 -1 -828 -8z"/>
<path d="M1261 2860 c-318 -45 -612 -197 -837 -432 -189 -198 -305 -420 -366
-696 -31 -140 -31 -414 0 -559 108 -502 450 -894 925 -1062 166 -58 271 -75
472 -74 144 0 199 4 276 21 573 125 1001 558 1116 1129 28 137 25 415 -6 553
-63 285 -183 505 -390 711 -206 206 -420 324 -706 389 -103 24 -377 35 -484
20z m389 -165 c192 -32 390 -115 545 -229 623 -461 691 -1359 145 -1906 -493
-492 -1289 -491 -1780 4 -180 182 -292 389 -347 646 -22 103 -24 371 -4 465
56 266 173 486 351 665 286 285 695 419 1090 355z"/>
<path d="M1415 2189 c-595 -160 -673 -183 -694 -206 -17 -20 -22 -34 -18 -58
4 -25 -16 -74 -103 -255 -96 -199 -111 -225 -141 -239 -54 -26 -65 -57 -52
-137 32 -187 170 -324 353 -353 179 -29 365 70 442 235 59 126 52 238 -17 257
-27 8 -40 29 -138 234 -60 124 -107 226 -105 227 2 2 93 27 203 56 110 29 206
55 213 58 9 3 12 -131 12 -652 l0 -656 -76 0 c-70 0 -78 -2 -105 -29 -16 -16
-29 -37 -29 -46 0 -24 27 -72 45 -79 9 -3 122 -6 251 -6 l235 0 24 25 c27 26
31 51 14 88 -16 35 -49 47 -130 47 l-69 0 2 677 3 678 195 52 c107 28 195 51
196 50 1 -1 -40 -89 -91 -194 -73 -150 -98 -193 -113 -193 -10 0 -29 -11 -42
-25 -54 -58 5 -262 103 -352 196 -181 486 -156 637 55 45 62 80 162 80 227 0
50 -30 95 -63 95 -19 0 -39 35 -134 233 -100 207 -111 236 -107 272 8 56 -23
95 -74 94 -20 0 -338 -81 -707 -180z m744 -254 c41 -85 72 -157 69 -160 -3 -3
-73 -4 -155 -3 l-150 3 75 158 c41 86 78 157 81 157 3 -1 39 -70 80 -155z
m-1332 -493 c-83 -1 -151 -1 -154 1 -2 2 31 75 73 162 l77 158 77 -159 76
-159 -149 -3z m1484 129 c-62 -121 -227 -174 -349 -112 -43 22 -117 99 -125
131 -5 20 0 20 244 20 l249 0 -19 -39z m-1246 -313 c-11 -35 -53 -86 -97 -118
-111 -80 -286 -47 -359 68 -16 25 -29 52 -29 59 0 10 50 13 246 13 l245 0 -6
-22z"/>
<path d="M3791 1863 c-63 -31 -70 -56 -69 -242 0 -142 -3 -175 -21 -232 -38
-119 -110 -187 -240 -225 -52 -16 -55 -15 -91 5 -34 19 -54 21 -187 21 -139 0
-152 -2 -184 -23 -70 -46 -69 -40 -69 -547 0 -507 -1 -501 69 -547 32 -21 45
-23 183 -23 151 0 173 4 214 41 20 18 23 18 135 -11 149 -39 315 -54 504 -46
249 10 418 59 479 139 71 93 136 329 166 601 26 235 -21 354 -159 407 -44 17
-86 22 -196 26 l-140 6 0 176 c0 154 -3 185 -22 246 -27 85 -69 153 -116 190
-70 53 -190 70 -256 38z m169 -180 c30 -31 40 -52 54 -110 18 -83 21 -239 5
-362 -11 -94 -3 -131 34 -149 13 -6 101 -12 207 -14 261 -5 266 -9 264 -188
-2 -155 -60 -435 -112 -540 -49 -100 -142 -124 -472 -124 -225 1 -225 1 -360
36 l-135 35 0 363 0 362 71 22 c98 32 171 76 233 141 94 99 132 226 133 438 0
120 1 127 20 127 11 0 37 -17 58 -37z m-680 -1063 l0 -410 -95 0 -95 0 0 410
0 410 95 0 95 0 0 -410z"/>
</g>
</svg>
