<?xml version="1.0" standalone="no"?>
<!DOCTYPE svg PUBLIC "-//W3C//DTD SVG 20010904//EN"
 "http://www.w3.org/TR/2001/REC-SVG-20010904/DTD/svg10.dtd">
<svg version="1.0" xmlns="http://www.w3.org/2000/svg"
 width="512.000000pt" height="512.000000pt" viewBox="0 0 512.000000 512.000000"
 preserveAspectRatio="xMidYMid meet">

<g transform="translate(0.000000,512.000000) scale(0.100000,-0.100000)"
fill="#000000" stroke="none">
<path d="M1511 4649 c-703 -58 -1240 -345 -1336 -715 -13 -50 -15 -183 -15
-955 0 -568 4 -916 10 -950 73 -381 623 -680 1364 -739 292 -23 624 1 918 66
25 6 29 1 81 -110 190 -399 475 -659 816 -745 445 -113 874 17 1169 352 172
194 300 440 372 712 59 223 63 261 67 761 l5 461 -24 26 c-19 22 -41 31 -128
48 -390 76 -738 225 -1022 436 -125 93 -139 96 -204 47 -27 -21 -80 -60 -119
-87 l-70 -48 -5 353 c-5 322 -7 358 -26 409 -130 360 -652 623 -1348 679 -148
12 -354 11 -505 -1z m-947 -1380 c320 -190 796 -291 1301 -276 548 17 983 148
1278 387 l87 70 0 -168 0 -169 -98 -46 c-196 -92 -382 -154 -610 -202 -134
-27 -156 -36 -166 -61 -3 -8 -6 -114 -6 -234 l0 -217 -57 -11 c-169 -32 -240
-37 -523 -37 -318 0 -411 9 -635 62 -344 81 -627 234 -742 401 -68 100 -73
128 -73 424 l0 259 73 -61 c39 -34 117 -88 171 -121z m3241 -500 c78 -25 125
-54 190 -118 105 -104 145 -216 145 -408 l0 -123 33 -13 c52 -22 98 -68 123
-122 24 -49 24 -54 24 -394 0 -232 -4 -356 -12 -382 -15 -51 -69 -114 -122
-142 -40 -22 -48 -22 -500 -25 -303 -2 -476 1 -511 8 -70 15 -128 59 -159 122
l-26 52 0 360 c0 330 2 364 19 401 23 50 74 99 124 120 l37 15 0 128 c0 197
33 293 140 402 128 131 316 176 495 119z m-3320 -305 c212 -142 490 -240 835
-296 129 -20 178 -23 455 -23 248 0 333 4 425 18 63 10 123 20 133 23 15 5 17
-5 17 -114 0 -140 22 -323 54 -458 13 -52 20 -96 17 -98 -12 -8 -214 -44 -316
-57 -60 -8 -197 -13 -345 -13 -199 1 -272 5 -390 23 -519 79 -899 268 -1016
508 l-29 58 -3 285 -3 284 53 -50 c29 -28 80 -68 113 -90z"/>
<path d="M3594 2630 c-97 -20 -186 -88 -236 -182 -20 -38 -23 -61 -26 -185
l-4 -143 327 0 327 0 -4 138 c-4 116 -8 144 -27 183 -66 138 -216 217 -357
189z"/>
<path d="M3170 1940 c-19 -19 -20 -33 -20 -354 0 -314 1 -335 19 -357 l19 -24
444 -3 c243 -1 453 0 466 3 12 3 31 14 42 25 19 19 20 35 20 353 0 322 -1 334
-20 355 l-21 22 -464 0 c-452 0 -466 -1 -485 -20z m551 -115 c159 -56 189
-272 52 -368 -38 -27 -43 -35 -43 -70 0 -50 -12 -71 -49 -87 -58 -23 -111 25
-111 102 0 28 -5 38 -20 43 -32 10 -87 83 -99 131 -28 109 37 221 147 254 42
13 76 11 123 -5z"/>
<path d="M3620 1660 c-25 -25 -25 -42 -2 -63 22 -20 53 -22 70 -5 19 19 15 66
-7 78 -28 14 -38 13 -61 -10z"/>
</g>
</svg>
